<svg id="my-svg" width="100%" xmlns="http://www.w3.org/2000/svg" xmlns:xlink="http://www.w3.org/1999/xlink" class="flowchart" style="max-width: 2809.75px; background-color: white;" viewBox="0 0 2809.75 1458.49658203125" role="graphics-document document" aria-roledescription="flowchart-v2"><style>#my-svg{font-family:"trebuchet ms",verdana,arial,sans-serif;font-size:16px;fill:#333;}@keyframes edge-animation-frame{from{stroke-dashoffset:0;}}@keyframes dash{to{stroke-dashoffset:0;}}#my-svg .edge-animation-slow{stroke-dasharray:9,5!important;stroke-dashoffset:900;animation:dash 50s linear infinite;stroke-linecap:round;}#my-svg .edge-animation-fast{stroke-dasharray:9,5!important;stroke-dashoffset:900;animation:dash 20s linear infinite;stroke-linecap:round;}#my-svg .error-icon{fill:#552222;}#my-svg .error-text{fill:#552222;stroke:#552222;}#my-svg .edge-thickness-normal{stroke-width:1px;}#my-svg .edge-thickness-thick{stroke-width:3.5px;}#my-svg .edge-pattern-solid{stroke-dasharray:0;}#my-svg .edge-thickness-invisible{stroke-width:0;fill:none;}#my-svg .edge-pattern-dashed{stroke-dasharray:3;}#my-svg .edge-pattern-dotted{stroke-dasharray:2;}#my-svg .marker{fill:#333333;stroke:#333333;}#my-svg .marker.cross{stroke:#333333;}#my-svg svg{font-family:"trebuchet ms",verdana,arial,sans-serif;font-size:16px;}#my-svg p{margin:0;}#my-svg .label{font-family:"trebuchet ms",verdana,arial,sans-serif;color:#333;}#my-svg .cluster-label text{fill:#333;}#my-svg .cluster-label span{color:#333;}#my-svg .cluster-label span p{background-color:transparent;}#my-svg .label text,#my-svg span{fill:#333;color:#333;}#my-svg .node rect,#my-svg .node circle,#my-svg .node ellipse,#my-svg .node polygon,#my-svg .node path{fill:#ECECFF;stroke:#9370DB;stroke-width:1px;}#my-svg .rough-node .label text,#my-svg .node .label text,#my-svg .image-shape .label,#my-svg .icon-shape .label{text-anchor:middle;}#my-svg .node .katex path{fill:#000;stroke:#000;stroke-width:1px;}#my-svg .rough-node .label,#my-svg .node .label,#my-svg .image-shape .label,#my-svg .icon-shape .label{text-align:center;}#my-svg .node.clickable{cursor:pointer;}#my-svg .root .anchor path{fill:#333333!important;stroke-width:0;stroke:#333333;}#my-svg .arrowheadPath{fill:#333333;}#my-svg .edgePath .path{stroke:#333333;stroke-width:1px;}#my-svg .flowchart-link{stroke:#333333;fill:none;}#my-svg .edgeLabel{background-color:rgba(232,232,232, 0.8);text-align:center;}#my-svg .edgeLabel p{background-color:rgba(232,232,232, 0.8);}#my-svg .edgeLabel rect{opacity:0.5;background-color:rgba(232,232,232, 0.8);fill:rgba(232,232,232, 0.8);}#my-svg .labelBkg{background-color:rgba(232, 232, 232, 0.5);}#my-svg .cluster rect{fill:#ffffde;stroke:#aaaa33;stroke-width:1px;}#my-svg .cluster text{fill:#333;}#my-svg .cluster span{color:#333;}#my-svg div.mermaidTooltip{position:absolute;text-align:center;max-width:200px;padding:2px;font-family:"trebuchet ms",verdana,arial,sans-serif;font-size:12px;background:hsl(80, 100%, 96.2745098039%);border:1px solid #aaaa33;border-radius:2px;pointer-events:none;z-index:100;}#my-svg .flowchartTitleText{text-anchor:middle;font-size:18px;fill:#333;}#my-svg rect.text{fill:none;stroke-width:0;}#my-svg .icon-shape,#my-svg .image-shape{background-color:rgba(232,232,232, 0.8);text-align:center;}#my-svg .icon-shape p,#my-svg .image-shape p{background-color:rgba(232,232,232, 0.8);padding:2px;}#my-svg .icon-shape .label rect,#my-svg .image-shape .label rect{opacity:0.5;background-color:rgba(232,232,232, 0.8);fill:rgba(232,232,232, 0.8);}#my-svg .label-icon{display:inline-block;height:1em;overflow:visible;vertical-align:-0.125em;}#my-svg .node .label-icon path{fill:currentColor;stroke:revert;stroke-width:revert;}#my-svg .node .neo-node{stroke:#9370DB;}#my-svg [data-look="neo"].node rect,#my-svg [data-look="neo"].cluster rect,#my-svg [data-look="neo"].node polygon{stroke:#9370DB;filter:drop-shadow(1px 2px 2px rgba(185, 185, 185, 1));}#my-svg [data-look="neo"].swimlane.cluster rect{filter:none;}#my-svg [data-look="neo"].node path{stroke:#9370DB;stroke-width:1px;}#my-svg [data-look="neo"].node .outer-path{filter:drop-shadow(1px 2px 2px rgba(185, 185, 185, 1));}#my-svg [data-look="neo"].node .neo-line path{stroke:#9370DB;filter:none;}#my-svg [data-look="neo"].node circle{stroke:#9370DB;filter:drop-shadow(1px 2px 2px rgba(185, 185, 185, 1));}#my-svg [data-look="neo"].node circle .state-start{fill:#000000;}#my-svg [data-look="neo"].icon-shape .icon{fill:#9370DB;filter:drop-shadow(1px 2px 2px rgba(185, 185, 185, 1));}#my-svg [data-look="neo"].icon-shape .icon-neo path{stroke:#9370DB;filter:drop-shadow(1px 2px 2px rgba(185, 185, 185, 1));}#my-svg :root{--mermaid-font-family:"trebuchet ms",verdana,arial,sans-serif;}</style><g><marker id="my-svg_flowchart-v2-pointEnd" class="marker flowchart-v2" viewBox="0 0 10 10" refX="5" refY="5" markerUnits="userSpaceOnUse" markerWidth="8" markerHeight="8" orient="auto"><path d="M 0 0 L 10 5 L 0 10 z" class="arrowMarkerPath" style="stroke-width: 1; stroke-dasharray: 1, 0;"/></marker><marker id="my-svg_flowchart-v2-pointStart" class="marker flowchart-v2" viewBox="0 0 10 10" refX="4.5" refY="5" markerUnits="userSpaceOnUse" markerWidth="8" markerHeight="8" orient="auto"><path d="M 0 5 L 10 10 L 10 0 z" class="arrowMarkerPath" style="stroke-width: 1; stroke-dasharray: 1, 0;"/></marker><marker id="my-svg_flowchart-v2-pointEnd-margin" class="marker flowchart-v2" viewBox="0 0 11.5 14" refX="11.5" refY="7" markerUnits="userSpaceOnUse" markerWidth="10.5" markerHeight="14" orient="auto"><path d="M 0 0 L 11.5 7 L 0 14 z" class="arrowMarkerPath" style="stroke-width: 0; stroke-dasharray: 1, 0;"/></marker><marker id="my-svg_flowchart-v2-pointStart-margin" class="marker flowchart-v2" viewBox="0 0 11.5 14" refX="1" refY="7" markerUnits="userSpaceOnUse" markerWidth="11.5" markerHeight="14" orient="auto"><polygon points="0,7 11.5,14 11.5,0" class="arrowMarkerPath" style="stroke-width: 0; stroke-dasharray: 1, 0;"/></marker><marker id="my-svg_flowchart-v2-circleEnd" class="marker flowchart-v2" viewBox="0 0 10 10" refX="11" refY="5" markerUnits="userSpaceOnUse" markerWidth="11" markerHeight="11" orient="auto"><circle cx="5" cy="5" r="5" class="arrowMarkerPath" style="stroke-width: 1; stroke-dasharray: 1, 0;"/></marker><marker id="my-svg_flowchart-v2-circleStart" class="marker flowchart-v2" viewBox="0 0 10 10" refX="-1" refY="5" markerUnits="userSpaceOnUse" markerWidth="11" markerHeight="11" orient="auto"><circle cx="5" cy="5" r="5" class="arrowMarkerPath" style="stroke-width: 1; stroke-dasharray: 1, 0;"/></marker><marker id="my-svg_flowchart-v2-circleEnd-margin" class="marker flowchart-v2" viewBox="0 0 10 10" refY="5" refX="12.25" markerUnits="userSpaceOnUse" markerWidth="14" markerHeight="14" orient="auto"><circle cx="5" cy="5" r="5" class="arrowMarkerPath" style="stroke-width: 0; stroke-dasharray: 1, 0;"/></marker><marker id="my-svg_flowchart-v2-circleStart-margin" class="marker flowchart-v2" viewBox="0 0 10 10" refX="-2" refY="5" markerUnits="userSpaceOnUse" markerWidth="14" markerHeight="14" orient="auto"><circle cx="5" cy="5" r="5" class="arrowMarkerPath" style="stroke-width: 0; stroke-dasharray: 1, 0;"/></marker><marker id="my-svg_flowchart-v2-crossEnd" class="marker cross flowchart-v2" viewBox="0 0 11 11" refX="12" refY="5.2" markerUnits="userSpaceOnUse" markerWidth="11" markerHeight="11" orient="auto"><path d="M 1,1 l 9,9 M 10,1 l -9,9" class="arrowMarkerPath" style="stroke-width: 2; stroke-dasharray: 1, 0;"/></marker><marker id="my-svg_flowchart-v2-crossStart" class="marker cross flowchart-v2" viewBox="0 0 11 11" refX="-1" refY="5.2" markerUnits="userSpaceOnUse" markerWidth="11" markerHeight="11" orient="auto"><path d="M 1,1 l 9,9 M 10,1 l -9,9" class="arrowMarkerPath" style="stroke-width: 2; stroke-dasharray: 1, 0;"/></marker><marker id="my-svg_flowchart-v2-crossEnd-margin" class="marker cross flowchart-v2" viewBox="0 0 15 15" refX="17.7" refY="7.5" markerUnits="userSpaceOnUse" markerWidth="12" markerHeight="12" orient="auto"><path d="M 1,1 L 14,14 M 1,14 L 14,1" class="arrowMarkerPath" style="stroke-width: 2.5;"/></marker><marker id="my-svg_flowchart-v2-crossStart-margin" class="marker cross flowchart-v2" viewBox="0 0 15 15" refX="-3.5" refY="7.5" markerUnits="userSpaceOnUse" markerWidth="12" markerHeight="12" orient="auto"><path d="M 1,1 L 14,14 M 1,14 L 14,1" class="arrowMarkerPath" style="stroke-width: 2.5; stroke-dasharray: 1, 0;"/></marker><g class="root"><g class="clusters"><g class="cluster" id="my-svg-Externos" data-look="classic"><rect style="" x="8" y="727" width="745" height="283.03260803222656"/><g class="cluster-label" transform="translate(259, 727)"><foreignObject width="243" height="24"><div xmlns="http://www.w3.org/1999/xhtml" style="display: table-cell; white-space: nowrap; line-height: 1.5;"><span class="nodeLabel"><p>Servicos Externos e Consumidores</p></span></div></foreignObject></g></g><g class="cluster" id="my-svg-Eventos" data-look="classic"><rect style="" x="773" y="565" width="585.5" height="292.03260803222656"/><g class="cluster-label" transform="translate(1016.75, 565)"><foreignObject width="98" height="24"><div xmlns="http://www.w3.org/1999/xhtml" style="display: table-cell; white-space: nowrap; line-height: 1.5;"><span class="nodeLabel"><p>Assincronismo</p></span></div></foreignObject></g></g><g class="cluster" id="my-svg-Dados" data-look="classic"><rect style="" x="1433" y="1084.0326080322266" width="1350" height="366.46402740478516"/><g class="cluster-label" transform="translate(2034.5, 1084.0326080322266)"><foreignObject width="147" height="24"><div xmlns="http://www.w3.org/1999/xhtml" style="display: table-cell; white-space: nowrap; line-height: 1.5;"><span class="nodeLabel"><p>Persistencia e Cache</p></span></div></foreignObject></g></g><g class="cluster" id="my-svg-Servicos" data-look="classic"><rect style="" x="1378.5" y="388" width="1203.25" height="622.0326080322266"/><g class="cluster-label" transform="translate(1898.125, 388)"><foreignObject width="164" height="24"><div xmlns="http://www.w3.org/1999/xhtml" style="display: table-cell; white-space: nowrap; line-height: 1.5;"><span class="nodeLabel"><p>Servicos de Identidade</p></span></div></foreignObject></g></g><g class="cluster" id="my-svg-Borda" data-look="classic"><rect style="" x="1807" y="186" width="976" height="128"/><g class="cluster-label" transform="translate(2229.5, 186)"><foreignObject width="131" height="24"><div xmlns="http://www.w3.org/1999/xhtml" style="display: table-cell; white-space: nowrap; line-height: 1.5;"><span class="nodeLabel"><p>Borda e Seguranca</p></span></div></foreignObject></g></g><g class="cluster" id="my-svg-Cliente" data-look="classic"><rect style="" x="2141.75" y="8" width="255" height="104"/><g class="cluster-label" transform="translate(2240.75, 8)"><foreignObject width="57" height="24"><div xmlns="http://www.w3.org/1999/xhtml" style="display: table-cell; white-space: nowrap; line-height: 1.5;"><span class="nodeLabel"><p>Clientes</p></span></div></foreignObject></g></g></g><g class="edgePaths"><path d="M2269.25,87L2269.25,91.167C2269.25,95.333,2269.25,103.667,2269.25,114C2269.25,124.333,2269.25,136.667,2269.25,149C2269.25,161.333,2269.25,173.667,2269.25,183.333C2269.25,193,2269.25,200,2269.25,203.5L2269.25,207" id="my-svg-L_A_B_0" class="edge-thickness-normal edge-pattern-solid edge-thickness-normal edge-pattern-solid flowchart-link" style=";" data-edge="true" data-et="edge" data-id="L_A_B_0" data-points="W3sieCI6MjI2OS4yNSwieSI6ODd9LHsieCI6MjI2OS4yNSwieSI6MTEyfSx7IngiOjIyNjkuMjUsInkiOjE0OX0seyJ4IjoyMjY5LjI1LCJ5IjoxODZ9LHsieCI6MjI2OS4yNSwieSI6MjExfV0=" data-look="classic" marker-end="url(#my-svg_flowchart-v2-pointEnd)"/><path d="M2159.75,266.928L2109,274.773C2058.25,282.618,1956.75,298.309,1906,312.321C1855.25,326.333,1855.25,338.667,1855.25,351C1855.25,363.333,1855.25,375.667,1855.25,385.333C1855.25,395,1855.25,402,1855.25,405.5L1855.25,409" id="my-svg-L_B_C_0" class="edge-thickness-normal edge-pattern-solid edge-thickness-normal edge-pattern-solid flowchart-link" style=";" data-edge="true" data-et="edge" data-id="L_B_C_0" data-points="W3sieCI6MjE1OS43NSwieSI6MjY2LjkyNzUzNjIzMTg4NDA2fSx7IngiOjE4NTUuMjUsInkiOjMxNH0seyJ4IjoxODU1LjI1LCJ5IjozNTF9LHsieCI6MTg1NS4yNSwieSI6Mzg4fSx7IngiOjE4NTUuMjUsInkiOjQxM31d" data-look="classic" marker-end="url(#my-svg_flowchart-v2-pointEnd)"/><path d="M2193.992,289L2185.952,293.167C2177.911,297.333,2161.831,305.667,2153.79,316C2145.75,326.333,2145.75,338.667,2145.75,351C2145.75,363.333,2145.75,375.667,2145.75,390.5C2145.75,405.333,2145.75,422.667,2145.75,444C2145.75,465.333,2145.75,490.667,2145.75,511.5C2145.75,532.333,2145.75,548.667,2145.75,564.25C2145.75,579.833,2145.75,594.667,2145.75,613.5C2145.75,632.333,2145.75,655.167,2145.75,674.75C2145.75,694.333,2145.75,710.667,2145.75,729.669C2145.75,748.672,2145.75,770.344,2145.75,792.016C2145.75,813.688,2145.75,835.361,2145.75,852.363C2145.75,869.366,2145.75,881.699,2054.205,897.192C1962.66,912.684,1779.57,931.336,1688.025,940.661L1596.479,949.987" id="my-svg-L_B_D_0" class="edge-thickness-normal edge-pattern-solid edge-thickness-normal edge-pattern-solid flowchart-link" style=";" data-edge="true" data-et="edge" data-id="L_B_D_0" data-points="W3sieCI6MjE5My45OTIxODc1LCJ5IjoyODl9LHsieCI6MjE0NS43NSwieSI6MzE0fSx7IngiOjIxNDUuNzUsInkiOjM1MX0seyJ4IjoyMTQ1Ljc1LCJ5IjozODh9LHsieCI6MjE0NS43NSwieSI6NDQwfSx7IngiOjIxNDUuNzUsInkiOjUxNn0seyJ4IjoyMTQ1Ljc1LCJ5Ijo1NjV9LHsieCI6MjE0NS43NSwieSI6NjA5LjV9LHsieCI6MjE0NS43NSwieSI6Njc4fSx7IngiOjIxNDUuNzUsInkiOjcyN30seyJ4IjoyMTQ1Ljc1LCJ5Ijo3OTIuMDE2MzA0MDE2MTEzM30seyJ4IjoyMTQ1Ljc1LCJ5Ijo4NTcuMDMyNjA4MDMyMjI2Nn0seyJ4IjoyMTQ1Ljc1LCJ5Ijo4OTQuMDMyNjA4MDMyMjI2Nn0seyJ4IjoxNTkyLjUsInkiOjk1MC4zOTIzMzc0MzkzMDk3fV0=" data-look="classic" marker-end="url(#my-svg_flowchart-v2-pointEnd)"/><path d="M2335.977,289L2343.105,293.167C2350.234,297.333,2364.492,305.667,2371.621,316C2378.75,326.333,2378.75,338.667,2378.75,351C2378.75,363.333,2378.75,375.667,2378.75,385.333C2378.75,395,2378.75,402,2378.75,405.5L2378.75,409" id="my-svg-L_B_E_0" class="edge-thickness-normal edge-pattern-solid edge-thickness-normal edge-pattern-solid flowchart-link" style=";" data-edge="true" data-et="edge" data-id="L_B_E_0" data-points="W3sieCI6MjMzNS45NzY1NjI1LCJ5IjoyODl9LHsieCI6MjM3OC43NSwieSI6MzE0fSx7IngiOjIzNzguNzUsInkiOjM1MX0seyJ4IjoyMzc4Ljc1LCJ5IjozODh9LHsieCI6MjM3OC43NSwieSI6NDEzfV0=" data-look="classic" marker-end="url(#my-svg_flowchart-v2-pointEnd)"/><path d="M1797.786,467L1780.405,475.167C1763.024,483.333,1728.262,499.667,1710.881,516C1693.5,532.333,1693.5,548.667,1693.5,564.25C1693.5,579.833,1693.5,594.667,1693.5,613.5C1693.5,632.333,1693.5,655.167,1693.5,674.75C1693.5,694.333,1693.5,710.667,1693.5,729.669C1693.5,748.672,1693.5,770.344,1693.5,792.016C1693.5,813.688,1693.5,835.361,1693.5,852.363C1693.5,869.366,1693.5,881.699,1693.5,898.533C1693.5,915.366,1693.5,936.699,1693.5,956.033C1693.5,975.366,1693.5,992.699,1693.5,1007.533C1693.5,1022.366,1693.5,1034.699,1693.5,1047.033C1693.5,1059.366,1693.5,1071.699,1697.045,1082.045C1700.59,1092.39,1707.68,1100.747,1711.225,1104.926L1714.77,1109.105" id="my-svg-L_C_F_0" class="edge-thickness-normal edge-pattern-solid edge-thickness-normal edge-pattern-solid flowchart-link" style=";" data-edge="true" data-et="edge" data-id="L_C_F_0" data-points="W3sieCI6MTc5Ny43ODYxODQyMTA1MjYyLCJ5Ijo0Njd9LHsieCI6MTY5My41LCJ5Ijo1MTZ9LHsieCI6MTY5My41LCJ5Ijo1NjV9LHsieCI6MTY5My41LCJ5Ijo2MDkuNX0seyJ4IjoxNjkzLjUsInkiOjY3OH0seyJ4IjoxNjkzLjUsInkiOjcyN30seyJ4IjoxNjkzLjUsInkiOjc5Mi4wMTYzMDQwMTYxMTMzfSx7IngiOjE2OTMuNSwieSI6ODU3LjAzMjYwODAzMjIyNjZ9LHsieCI6MTY5My41LCJ5Ijo4OTQuMDMyNjA4MDMyMjI2Nn0seyJ4IjoxNjkzLjUsInkiOjk1OC4wMzI2MDgwMzIyMjY2fSx7IngiOjE2OTMuNSwieSI6MTAxMC4wMzI2MDgwMzIyMjY2fSx7IngiOjE2OTMuNSwieSI6MTA0Ny4wMzI2MDgwMzIyMjY2fSx7IngiOjE2OTMuNSwieSI6MTA4NC4wMzI2MDgwMzIyMjY2fSx7IngiOjE3MTcuMzU3NzQ2OTM5NTE3LCJ5IjoxMTEyLjE1NTA4NTgwMDIwNDJ9XQ==" data-look="classic" marker-end="url(#my-svg_flowchart-v2-pointEnd)"/><path d="M1502.053,985.033L1499.669,989.199C1497.285,993.366,1492.518,1001.699,1490.134,1012.033C1487.75,1022.366,1487.75,1034.699,1487.75,1047.033C1487.75,1059.366,1487.75,1071.699,1518.156,1087.411C1548.561,1103.122,1609.372,1122.212,1639.778,1131.757L1670.184,1141.302" id="my-svg-L_D_F_0" class="edge-thickness-normal edge-pattern-solid edge-thickness-normal edge-pattern-solid flowchart-link" style=";" data-edge="true" data-et="edge" data-id="L_D_F_0" data-points="W3sieCI6MTUwMi4wNTI4ODQ2MTUzODQ1LCJ5Ijo5ODUuMDMyNjA4MDMyMjI2Nn0seyJ4IjoxNDg3Ljc1LCJ5IjoxMDEwLjAzMjYwODAzMjIyNjZ9LHsieCI6MTQ4Ny43NSwieSI6MTA0Ny4wMzI2MDgwMzIyMjY2fSx7IngiOjE0ODcuNzUsInkiOjEwODQuMDMyNjA4MDMyMjI2Nn0seyJ4IjoxNjc0LCJ5IjoxMTQyLjQ5OTcyMjMyMjUwNDZ9XQ==" data-look="classic" marker-end="url(#my-svg_flowchart-v2-pointEnd)"/><path d="M2317.289,467L2298.7,475.167C2280.11,483.333,2242.93,499.667,2224.34,516C2205.75,532.333,2205.75,548.667,2205.75,564.25C2205.75,579.833,2205.75,594.667,2205.75,613.5C2205.75,632.333,2205.75,655.167,2205.75,674.75C2205.75,694.333,2205.75,710.667,2205.75,729.669C2205.75,748.672,2205.75,770.344,2205.75,792.016C2205.75,813.688,2205.75,835.361,2205.75,852.363C2205.75,869.366,2205.75,881.699,2205.75,898.533C2205.75,915.366,2205.75,936.699,2205.75,956.033C2205.75,975.366,2205.75,992.699,2205.75,1007.533C2205.75,1022.366,2205.75,1034.699,2205.75,1047.033C2205.75,1059.366,2205.75,1071.699,2153.61,1089.199C2101.47,1106.699,1997.189,1129.365,1945.049,1140.698L1892.909,1152.03" id="my-svg-L_E_F_0" class="edge-thickness-normal edge-pattern-solid edge-thickness-normal edge-pattern-solid flowchart-link" style=";" data-edge="true" data-et="edge" data-id="L_E_F_0" data-points="W3sieCI6MjMxNy4yODk0NzM2ODQyMTA0LCJ5Ijo0Njd9LHsieCI6MjIwNS43NSwieSI6NTE2fSx7IngiOjIyMDUuNzUsInkiOjU2NX0seyJ4IjoyMjA1Ljc1LCJ5Ijo2MDkuNX0seyJ4IjoyMjA1Ljc1LCJ5Ijo2Nzh9LHsieCI6MjIwNS43NSwieSI6NzI3fSx7IngiOjIyMDUuNzUsInkiOjc5Mi4wMTYzMDQwMTYxMTMzfSx7IngiOjIyMDUuNzUsInkiOjg1Ny4wMzI2MDgwMzIyMjY2fSx7IngiOjIyMDUuNzUsInkiOjg5NC4wMzI2MDgwMzIyMjY2fSx7IngiOjIyMDUuNzUsInkiOjk1OC4wMzI2MDgwMzIyMjY2fSx7IngiOjIyMDUuNzUsInkiOjEwMTAuMDMyNjA4MDMyMjI2Nn0seyJ4IjoyMjA1Ljc1LCJ5IjoxMDQ3LjAzMjYwODAzMjIyNjZ9LHsieCI6MjIwNS43NSwieSI6MTA4NC4wMzI2MDgwMzIyMjY2fSx7IngiOjE4ODksInkiOjExNTIuODgwMDg0NDA5MjQ3M31d" data-look="classic" marker-end="url(#my-svg_flowchart-v2-pointEnd)"/><path d="M1532.947,985.033L1535.331,989.199C1537.715,993.366,1542.482,1001.699,1544.866,1012.033C1547.25,1022.366,1547.25,1034.699,1547.25,1047.033C1547.25,1059.366,1547.25,1071.699,1547.25,1093.235C1547.25,1114.77,1547.25,1145.508,1547.25,1178.246C1547.25,1210.984,1547.25,1245.721,1552.049,1269.053C1556.848,1292.385,1566.446,1304.311,1571.244,1310.274L1576.043,1316.237" id="my-svg-L_D_FR_0" class="edge-thickness-normal edge-pattern-solid edge-thickness-normal edge-pattern-solid flowchart-link" style=";" data-edge="true" data-et="edge" data-id="L_D_FR_0" data-points="W3sieCI6MTUzMi45NDcxMTUzODQ2MTU1LCJ5Ijo5ODUuMDMyNjA4MDMyMjI2Nn0seyJ4IjoxNTQ3LjI1LCJ5IjoxMDEwLjAzMjYwODAzMjIyNjZ9LHsieCI6MTU0Ny4yNSwieSI6MTA0Ny4wMzI2MDgwMzIyMjY2fSx7IngiOjE1NDcuMjUsInkiOjEwODQuMDMyNjA4MDMyMjI2Nn0seyJ4IjoxNTQ3LjI1LCJ5IjoxMTc2LjI0NTg0MTk3OTk4MDV9LHsieCI6MTU0Ny4yNSwieSI6MTI4MC40NTkwNzU5Mjc3MzQ0fSx7IngiOjE1NzguNTUxMjMyNjQzMTk4NSwieSI6MTMxOS4zNTMwMTkzMjQ5MDAzfV0=" data-look="classic" marker-end="url(#my-svg_flowchart-v2-pointEnd)"/><path d="M1781.5,1243.459L1781.5,1249.626C1781.5,1255.792,1781.5,1268.126,1771.37,1282.251C1761.241,1296.376,1740.981,1312.293,1730.851,1320.251L1720.722,1328.209" id="my-svg-L_F_FR_0" class="edge-thickness-normal edge-pattern-solid edge-thickness-normal edge-pattern-solid flowchart-link" style=";" data-edge="true" data-et="edge" data-id="L_F_FR_0" data-points="W3sieCI6MTc4MS41LCJ5IjoxMjQzLjQ1OTA3NTkyNzczNDR9LHsieCI6MTc4MS41LCJ5IjoxMjgwLjQ1OTA3NTkyNzczNDR9LHsieCI6MTcxNy41NzYzNzg3OTAzNTA5LCJ5IjoxMzMwLjY4MDU5MzU0OTQ2M31d" data-look="classic" marker-end="url(#my-svg_flowchart-v2-pointEnd)"/><path d="M1873.191,467L1878.617,475.167C1884.044,483.333,1894.897,499.667,1900.323,516C1905.75,532.333,1905.75,548.667,1905.75,564.25C1905.75,579.833,1905.75,594.667,1905.75,613.5C1905.75,632.333,1905.75,655.167,1905.75,674.75C1905.75,694.333,1905.75,710.667,1905.75,729.669C1905.75,748.672,1905.75,770.344,1905.75,792.016C1905.75,813.688,1905.75,835.361,1905.75,852.363C1905.75,869.366,1905.75,881.699,1905.75,898.533C1905.75,915.366,1905.75,936.699,1905.75,956.033C1905.75,975.366,1905.75,992.699,1905.75,1007.533C1905.75,1022.366,1905.75,1034.699,1905.75,1047.033C1905.75,1059.366,1905.75,1071.699,1961.847,1089.413C2017.944,1107.126,2130.138,1130.219,2186.235,1141.766L2242.332,1153.312" id="my-svg-L_C_I_0" class="edge-thickness-normal edge-pattern-solid edge-thickness-normal edge-pattern-solid flowchart-link" style=";" data-edge="true" data-et="edge" data-id="L_C_I_0" data-points="W3sieCI6MTg3My4xOTA3ODk0NzM2ODQyLCJ5Ijo0Njd9LHsieCI6MTkwNS43NSwieSI6NTE2fSx7IngiOjE5MDUuNzUsInkiOjU2NX0seyJ4IjoxOTA1Ljc1LCJ5Ijo2MDkuNX0seyJ4IjoxOTA1Ljc1LCJ5Ijo2Nzh9LHsieCI6MTkwNS43NSwieSI6NzI3fSx7IngiOjE5MDUuNzUsInkiOjc5Mi4wMTYzMDQwMTYxMTMzfSx7IngiOjE5MDUuNzUsInkiOjg1Ny4wMzI2MDgwMzIyMjY2fSx7IngiOjE5MDUuNzUsInkiOjg5NC4wMzI2MDgwMzIyMjY2fSx7IngiOjE5MDUuNzUsInkiOjk1OC4wMzI2MDgwMzIyMjY2fSx7IngiOjE5MDUuNzUsInkiOjEwMTAuMDMyNjA4MDMyMjI2Nn0seyJ4IjoxOTA1Ljc1LCJ5IjoxMDQ3LjAzMjYwODAzMjIyNjZ9LHsieCI6MTkwNS43NSwieSI6MTA4NC4wMzI2MDgwMzIyMjY2fSx7IngiOjIyNDYuMjUsInkiOjExNTQuMTE4NzgyNDk0NzQ5NH1d" data-look="classic" marker-end="url(#my-svg_flowchart-v2-pointEnd)"/><path d="M2378.75,266.203L2432.583,274.17C2486.417,282.136,2594.083,298.068,2647.917,312.201C2701.75,326.333,2701.75,338.667,2701.75,351C2701.75,363.333,2701.75,375.667,2701.75,390.5C2701.75,405.333,2701.75,422.667,2701.75,444C2701.75,465.333,2701.75,490.667,2701.75,511.5C2701.75,532.333,2701.75,548.667,2701.75,564.25C2701.75,579.833,2701.75,594.667,2701.75,613.5C2701.75,632.333,2701.75,655.167,2701.75,674.75C2701.75,694.333,2701.75,710.667,2701.75,729.669C2701.75,748.672,2701.75,770.344,2701.75,792.016C2701.75,813.688,2701.75,835.361,2701.75,852.363C2701.75,869.366,2701.75,881.699,2701.75,898.533C2701.75,915.366,2701.75,936.699,2701.75,956.033C2701.75,975.366,2701.75,992.699,2701.75,1007.533C2701.75,1022.366,2701.75,1034.699,2701.75,1047.033C2701.75,1059.366,2701.75,1071.699,2662.311,1088.316C2622.872,1104.934,2543.994,1125.835,2504.555,1136.285L2465.117,1146.736" id="my-svg-L_B_I_0" class="edge-thickness-normal edge-pattern-dotted edge-thickness-normal edge-pattern-solid flowchart-link" style=";" data-edge="true" data-et="edge" data-id="L_B_I_0" data-points="W3sieCI6MjM3OC43NSwieSI6MjY2LjIwMzQ2ODIwODA5MjV9LHsieCI6MjcwMS43NSwieSI6MzE0fSx7IngiOjI3MDEuNzUsInkiOjM1MX0seyJ4IjoyNzAxLjc1LCJ5IjozODh9LHsieCI6MjcwMS43NSwieSI6NDQwfSx7IngiOjI3MDEuNzUsInkiOjUxNn0seyJ4IjoyNzAxLjc1LCJ5Ijo1NjV9LHsieCI6MjcwMS43NSwieSI6NjA5LjV9LHsieCI6MjcwMS43NSwieSI6Njc4fSx7IngiOjI3MDEuNzUsInkiOjcyN30seyJ4IjoyNzAxLjc1LCJ5Ijo3OTIuMDE2MzA0MDE2MTEzM30seyJ4IjoyNzAxLjc1LCJ5Ijo4NTcuMDMyNjA4MDMyMjI2Nn0seyJ4IjoyNzAxLjc1LCJ5Ijo4OTQuMDMyNjA4MDMyMjI2Nn0seyJ4IjoyNzAxLjc1LCJ5Ijo5NTguMDMyNjA4MDMyMjI2Nn0seyJ4IjoyNzAxLjc1LCJ5IjoxMDEwLjAzMjYwODAzMjIyNjZ9LHsieCI6MjcwMS43NSwieSI6MTA0Ny4wMzI2MDgwMzIyMjY2fSx7IngiOjI3MDEuNzUsInkiOjEwODQuMDMyNjA4MDMyMjI2Nn0seyJ4IjoyNDYxLjI1LCJ5IjoxMTQ3Ljc2MDQzMjA2Nzk1ODh9XQ==" data-look="classic" marker-end="url(#my-svg_flowchart-v2-pointEnd)"/><path d="M1915.822,467L1934.144,475.167C1952.465,483.333,1989.107,499.667,2007.429,516C2025.75,532.333,2025.75,548.667,1863.416,563.944C1701.082,579.221,1376.414,593.441,1214.08,600.551L1051.746,607.662" id="my-svg-L_C_K_0" class="edge-thickness-normal edge-pattern-solid edge-thickness-normal edge-pattern-solid flowchart-link" style=";" data-edge="true" data-et="edge" data-id="L_C_K_0" data-points="W3sieCI6MTkxNS44MjIzNjg0MjEwNTI3LCJ5Ijo0Njd9LHsieCI6MjAyNS43NSwieSI6NTE2fSx7IngiOjIwMjUuNzUsInkiOjU2NX0seyJ4IjoxMDQ3Ljc1LCJ5Ijo2MDcuODM2NjU1MzIzMjg2M31d" data-look="classic" marker-end="url(#my-svg_flowchart-v2-pointEnd)"/><path d="M1539.016,931.033L1543.93,924.866C1548.844,918.699,1558.672,906.366,1513.169,894.033C1467.667,881.699,1366.833,869.366,1316.417,852.363C1266,835.361,1266,813.688,1266,792.016C1266,770.344,1266,748.672,1266,729.669C1266,710.667,1266,694.333,1230.271,677.121C1194.543,659.909,1123.085,641.817,1087.356,632.772L1051.628,623.726" id="my-svg-L_D_K_0" class="edge-thickness-normal edge-pattern-solid edge-thickness-normal edge-pattern-solid flowchart-link" style=";" data-edge="true" data-et="edge" data-id="L_D_K_0" data-points="W3sieCI6MTUzOS4wMTU2MjUsInkiOjkzMS4wMzI2MDgwMzIyMjY2fSx7IngiOjE1NjguNSwieSI6ODk0LjAzMjYwODAzMjIyNjZ9LHsieCI6MTI2NiwieSI6ODU3LjAzMjYwODAzMjIyNjZ9LHsieCI6MTI2NiwieSI6NzkyLjAxNjMwNDAxNjExMzN9LHsieCI6MTI2NiwieSI6NzI3fSx7IngiOjEyNjYsInkiOjY3OH0seyJ4IjoxMDQ3Ljc1LCJ5Ijo2MjIuNzQ0MTg2MDQ2NTExNn1d" data-look="classic" marker-end="url(#my-svg_flowchart-v2-pointEnd)"/><path d="M2350.507,467L2341.964,475.167C2333.421,483.333,2316.336,499.667,2307.793,516C2299.25,532.333,2299.25,548.667,2091.333,564.025C1883.416,579.384,1467.582,593.769,1259.665,600.961L1051.748,608.153" id="my-svg-L_E_K_0" class="edge-thickness-normal edge-pattern-solid edge-thickness-normal edge-pattern-solid flowchart-link" style=";" data-edge="true" data-et="edge" data-id="L_E_K_0" data-points="W3sieCI6MjM1MC41MDY1Nzg5NDczNjgzLCJ5Ijo0Njd9LHsieCI6MjI5OS4yNSwieSI6NTE2fSx7IngiOjIyOTkuMjUsInkiOjU2NX0seyJ4IjoxMDQ3Ljc1LCJ5Ijo2MDguMjkxMDkwNjI5ODAwNH1d" data-look="classic" marker-end="url(#my-svg_flowchart-v2-pointEnd)"/><path d="M947.75,628.69L925.458,636.909C903.167,645.127,858.583,661.563,836.292,677.948C814,694.333,814,710.667,720.164,727.953C626.327,745.239,438.654,763.478,344.818,772.597L250.981,781.717" id="my-svg-L_K_M_0" class="edge-thickness-normal edge-pattern-solid edge-thickness-normal edge-pattern-solid flowchart-link" style=";" data-edge="true" data-et="edge" data-id="L_K_M_0" data-points="W3sieCI6OTQ3Ljc1LCJ5Ijo2MjguNjkwMzEzNzc4OTkwNX0seyJ4Ijo4MTQsInkiOjY3OH0seyJ4Ijo4MTQsInkiOjcyN30seyJ4IjoyNDcsInkiOjc4Mi4xMDM1MDQzMDA2NTJ9XQ==" data-look="classic" marker-end="url(#my-svg_flowchart-v2-pointEnd)"/><path d="M145,819.016L145,825.352C145,831.688,145,844.361,145,856.863C145,869.366,145,881.699,145,893.366C145,905.033,145,916.033,145,921.533L145,927.033" id="my-svg-L_M_J_0" class="edge-thickness-normal edge-pattern-solid edge-thickness-normal edge-pattern-solid flowchart-link" style=";" data-edge="true" data-et="edge" data-id="L_M_J_0" data-points="W3sieCI6MTQ1LCJ5Ijo4MTkuMDE2MzA0MDE2MTEzM30seyJ4IjoxNDUsInkiOjg1Ny4wMzI2MDgwMzIyMjY2fSx7IngiOjE0NSwieSI6ODk0LjAzMjYwODAzMjIyNjZ9LHsieCI6MTQ1LCJ5Ijo5MzEuMDMyNjA4MDMyMjI2Nn1d" data-look="classic" marker-end="url(#my-svg_flowchart-v2-pointEnd)"/><path d="M973.339,629.5L963.033,637.583C952.726,645.667,932.113,661.833,921.807,678.083C911.5,694.333,911.5,710.667,837.912,727.861C764.323,745.054,617.147,763.109,543.559,772.136L469.97,781.163" id="my-svg-L_K_L_0" class="edge-thickness-normal edge-pattern-solid edge-thickness-normal edge-pattern-solid flowchart-link" style=";" data-edge="true" data-et="edge" data-id="L_K_L_0" data-points="W3sieCI6OTczLjMzOTQxNjA1ODM5NDEsInkiOjYyOS41fSx7IngiOjkxMS41LCJ5Ijo2Nzh9LHsieCI6OTExLjUsInkiOjcyN30seyJ4Ijo0NjYsInkiOjc4MS42NTA0OTcwNTUwNTM3fV0=" data-look="classic" marker-end="url(#my-svg_flowchart-v2-pointEnd)"/><path d="M2383.724,467L2385.228,475.167C2386.732,483.333,2389.741,499.667,2391.246,516C2392.75,532.333,2392.75,548.667,2392.75,564.25C2392.75,579.833,2392.75,594.667,2392.75,613.5C2392.75,632.333,2392.75,655.167,2392.75,674.75C2392.75,694.333,2392.75,710.667,2114.291,729.029C1835.832,747.391,1278.915,767.781,1000.456,777.977L721.997,788.172" id="my-svg-L_E_N_0" class="edge-thickness-normal edge-pattern-dotted edge-thickness-normal edge-pattern-solid flowchart-link" style=";" data-edge="true" data-et="edge" data-id="L_E_N_0" data-points="W3sieCI6MjM4My43MjM2ODQyMTA1MjYyLCJ5Ijo0Njd9LHsieCI6MjM5Mi43NSwieSI6NTE2fSx7IngiOjIzOTIuNzUsInkiOjU2NX0seyJ4IjoyMzkyLjc1LCJ5Ijo2MDkuNX0seyJ4IjoyMzkyLjc1LCJ5Ijo2Nzh9LHsieCI6MjM5Mi43NSwieSI6NzI3fSx7IngiOjcxOCwieSI6Nzg4LjMxODM0NzI2MjI3NTZ9XQ==" data-look="classic" marker-end="url(#my-svg_flowchart-v2-pointEnd)"/><path d="M718,788.559L1017.708,778.299C1317.417,768.039,1916.833,747.52,2216.542,729.093C2516.25,710.667,2516.25,694.333,2516.25,674.75C2516.25,655.167,2516.25,632.333,2516.25,613.5C2516.25,594.667,2516.25,579.833,2516.25,564.25C2516.25,548.667,2516.25,532.333,2502.058,516.323C2487.867,500.312,2459.483,484.623,2445.291,476.779L2431.1,468.935" id="my-svg-L_N_E_0" class="edge-thickness-normal edge-pattern-dotted edge-thickness-normal edge-pattern-solid flowchart-link" style=";" data-edge="true" data-et="edge" data-id="L_N_E_0" data-points="W3sieCI6NzE4LCJ5Ijo3ODguNTU4ODA5MzcwNTI4M30seyJ4IjoyNTE2LjI1LCJ5Ijo3Mjd9LHsieCI6MjUxNi4yNSwieSI6Njc4fSx7IngiOjI1MTYuMjUsInkiOjYwOS41fSx7IngiOjI1MTYuMjUsInkiOjU2NX0seyJ4IjoyNTE2LjI1LCJ5Ijo1MTZ9LHsieCI6MjQyNy41OTg2ODQyMTA1MjYyLCJ5Ijo0Njd9XQ==" data-look="classic" marker-end="url(#my-svg_flowchart-v2-pointEnd)"/><path d="M1022.161,629.5L1032.3,637.583C1042.44,645.667,1062.72,661.833,1072.86,678.083C1083,694.333,1083,710.667,1083,722.333C1083,734,1083,741,1083,744.5L1083,748" id="my-svg-L_K_DLQ_0" class="edge-thickness-normal edge-pattern-solid edge-thickness-normal edge-pattern-solid flowchart-link" style=";" data-edge="true" data-et="edge" data-id="L_K_DLQ_0" data-points="W3sieCI6MTAyMi4xNjA1ODM5NDE2MDU5LCJ5Ijo2MjkuNX0seyJ4IjoxMDgzLCJ5Ijo2Nzh9LHsieCI6MTA4MywieSI6NzI3fSx7IngiOjEwODMsInkiOjc1Mn1d" data-look="classic" marker-end="url(#my-svg_flowchart-v2-pointEnd)"/><path d="M1083,832.033L1083,836.199C1083,840.366,1083,848.699,1148.417,859.033C1213.833,869.366,1344.667,881.699,1413.764,893.475C1482.862,905.251,1490.224,916.47,1493.906,922.079L1497.587,927.688" id="my-svg-L_DLQ_D_0" class="edge-thickness-normal edge-pattern-solid edge-thickness-normal edge-pattern-solid flowchart-link" style=";" data-edge="true" data-et="edge" data-id="L_DLQ_D_0" data-points="W3sieCI6MTA4MywieSI6ODMyLjAzMjYwODAzMjIyNjZ9LHsieCI6MTA4MywieSI6ODU3LjAzMjYwODAzMjIyNjZ9LHsieCI6MTQ3NS41LCJ5Ijo4OTQuMDMyNjA4MDMyMjI2Nn0seyJ4IjoxNDk5Ljc4MTI1LCJ5Ijo5MzEuMDMyNjA4MDMyMjI2Nn1d" data-look="classic" marker-end="url(#my-svg_flowchart-v2-pointEnd)"/></g><g class="edgeLabels"><g class="edgeLabel" transform="translate(2269.25, 149)"><g class="label" data-id="L_A_B_0" transform="translate(-22.5, -12)"><foreignObject width="45" height="24"><div xmlns="http://www.w3.org/1999/xhtml" class="labelBkg" style="display: table-cell; white-space: nowrap; line-height: 1.5; max-width: 200px; text-align: center;"><span class="edgeLabel"><p>HTTPS</p></span></div></foreignObject></g></g><g class="edgeLabel" transform="translate(1855.25, 351)"><g class="label" data-id="L_B_C_0" transform="translate(-40.5, -12)"><foreignObject width="81" height="24"><div xmlns="http://www.w3.org/1999/xhtml" class="labelBkg" style="display: table-cell; white-space: nowrap; line-height: 1.5; max-width: 200px; text-align: center;"><span class="edgeLabel"><p>Auth routes</p></span></div></foreignObject></g></g><g class="edgeLabel" transform="translate(2145.75, 609.5)"><g class="label" data-id="L_B_D_0" transform="translate(-40, -12)"><foreignObject width="80" height="24"><div xmlns="http://www.w3.org/1999/xhtml" class="labelBkg" style="display: table-cell; white-space: nowrap; line-height: 1.5; max-width: 200px; text-align: center;"><span class="edgeLabel"><p>User routes</p></span></div></foreignObject></g></g><g class="edgeLabel" transform="translate(2378.75, 351)"><g class="label" data-id="L_B_E_0" transform="translate(-51.5, -12)"><foreignObject width="103" height="24"><div xmlns="http://www.w3.org/1999/xhtml" class="labelBkg" style="display: table-cell; white-space: nowrap; line-height: 1.5; max-width: 200px; text-align: center;"><span class="edgeLabel"><p>Address routes</p></span></div></foreignObject></g></g><g class="edgeLabel" transform="translate(1693.5, 792.0163040161133)"><g class="label" data-id="L_C_F_0" transform="translate(-39.5, -12)"><foreignObject width="79" height="24"><div xmlns="http://www.w3.org/1999/xhtml" class="labelBkg" style="display: table-cell; white-space: nowrap; line-height: 1.5; max-width: 200px; text-align: center;"><span class="edgeLabel"><p>write/read</p></span></div></foreignObject></g></g><g class="edgeLabel" transform="translate(1487.75, 1047.0326080322266)"><g class="label" data-id="L_D_F_0" transform="translate(-39.5, -12)"><foreignObject width="79" height="24"><div xmlns="http://www.w3.org/1999/xhtml" class="labelBkg" style="display: table-cell; white-space: nowrap; line-height: 1.5; max-width: 200px; text-align: center;"><span class="edgeLabel"><p>write/read</p></span></div></foreignObject></g></g><g class="edgeLabel" transform="translate(2205.75, 792.0163040161133)"><g class="label" data-id="L_E_F_0" transform="translate(-39.5, -12)"><foreignObject width="79" height="24"><div xmlns="http://www.w3.org/1999/xhtml" class="labelBkg" style="display: table-cell; white-space: nowrap; line-height: 1.5; max-width: 200px; text-align: center;"><span class="edgeLabel"><p>write/read</p></span></div></foreignObject></g></g><g class="edgeLabel" transform="translate(1547.25, 1176.2458419799805)"><g class="label" data-id="L_D_FR_0" transform="translate(-40, -12)"><foreignObject width="80" height="24"><div xmlns="http://www.w3.org/1999/xhtml" class="labelBkg" style="display: table-cell; white-space: nowrap; line-height: 1.5; max-width: 200px; text-align: center;"><span class="edgeLabel"><p>read heavy</p></span></div></foreignObject></g></g><g class="edgeLabel" transform="translate(1781.5, 1280.4590759277344)"><g class="label" data-id="L_F_FR_0" transform="translate(-75.5, -12)"><foreignObject width="151" height="24"><div xmlns="http://www.w3.org/1999/xhtml" class="labelBkg" style="display: table-cell; white-space: nowrap; line-height: 1.5; max-width: 200px; text-align: center;"><span class="edgeLabel"><p>streaming replication</p></span></div></foreignObject></g></g><g class="edgeLabel" transform="translate(1905.75, 792.0163040161133)"><g class="label" data-id="L_C_I_0" transform="translate(-100, -24)"><foreignObject width="200" height="48"><div xmlns="http://www.w3.org/1999/xhtml" class="labelBkg" style="display: table; white-space: break-spaces; line-height: 1.5; max-width: 200px; text-align: center; width: 200px;"><span class="edgeLabel"><p>OTP, rate limit, token revocation</p></span></div></foreignObject></g></g><g class="edgeLabel" transform="translate(2701.75, 678)"><g class="label" data-id="L_B_I_0" transform="translate(-100, -24)"><foreignObject width="200" height="48"><div xmlns="http://www.w3.org/1999/xhtml" class="labelBkg" style="display: table; white-space: break-spaces; line-height: 1.5; max-width: 200px; text-align: center; width: 200px;"><span class="edgeLabel"><p>check revoked token when needed</p></span></div></foreignObject></g></g><g class="edgeLabel" transform="translate(2025.75, 516)"><g class="label" data-id="L_C_K_0" transform="translate(-100, -24)"><foreignObject width="200" height="48"><div xmlns="http://www.w3.org/1999/xhtml" class="labelBkg" style="display: table; white-space: break-spaces; line-height: 1.5; max-width: 200px; text-align: center; width: 200px;"><span class="edgeLabel"><p>user.created, user.phone.verified</p></span></div></foreignObject></g></g><g class="edgeLabel" transform="translate(1266, 792.0163040161133)"><g class="label" data-id="L_D_K_0" transform="translate(-72.5, -12)"><foreignObject width="145" height="24"><div xmlns="http://www.w3.org/1999/xhtml" class="labelBkg" style="display: table-cell; white-space: nowrap; line-height: 1.5; max-width: 200px; text-align: center;"><span class="edgeLabel"><p>user.profile.updated</p></span></div></foreignObject></g></g><g class="edgeLabel" transform="translate(2299.25, 516)"><g class="label" data-id="L_E_K_0" transform="translate(-73.5, -12)"><foreignObject width="147" height="24"><div xmlns="http://www.w3.org/1999/xhtml" class="labelBkg" style="display: table-cell; white-space: nowrap; line-height: 1.5; max-width: 200px; text-align: center;"><span class="edgeLabel"><p>user.address.created</p></span></div></foreignObject></g></g><g class="edgeLabel" transform="translate(814, 678)"><g class="label" data-id="L_K_M_0" transform="translate(-21, -12)"><foreignObject width="42" height="24"><div xmlns="http://www.w3.org/1999/xhtml" class="labelBkg" style="display: table-cell; white-space: nowrap; line-height: 1.5; max-width: 200px; text-align: center;"><span class="edgeLabel"><p>notify</p></span></div></foreignObject></g></g><g class="edgeLabel" transform="translate(145, 894.0326080322266)"><g class="label" data-id="L_M_J_0" transform="translate(-36, -12)"><foreignObject width="72" height="24"><div xmlns="http://www.w3.org/1999/xhtml" class="labelBkg" style="display: table-cell; white-space: nowrap; line-height: 1.5; max-width: 200px; text-align: center;"><span class="edgeLabel"><p>email/sms</p></span></div></foreignObject></g></g><g class="edgeLabel" transform="translate(911.5, 678)"><g class="label" data-id="L_K_L_0" transform="translate(-56.5, -12)"><foreignObject width="113" height="24"><div xmlns="http://www.w3.org/1999/xhtml" class="labelBkg" style="display: table-cell; white-space: nowrap; line-height: 1.5; max-width: 200px; text-align: center;"><span class="edgeLabel"><p>analytics events</p></span></div></foreignObject></g></g><g class="edgeLabel" transform="translate(2392.75, 609.5)"><g class="label" data-id="L_E_N_0" transform="translate(-58, -12)"><foreignObject width="116" height="24"><div xmlns="http://www.w3.org/1999/xhtml" class="labelBkg" style="display: table-cell; white-space: nowrap; line-height: 1.5; max-width: 200px; text-align: center;"><span class="edgeLabel"><p>geocoding async</p></span></div></foreignObject></g></g><g class="edgeLabel" transform="translate(2516.25, 609.5)"><g class="label" data-id="L_N_E_0" transform="translate(-45.5, -12)"><foreignObject width="91" height="24"><div xmlns="http://www.w3.org/1999/xhtml" class="labelBkg" style="display: table-cell; white-space: nowrap; line-height: 1.5; max-width: 200px; text-align: center;"><span class="edgeLabel"><p>lat/lon result</p></span></div></foreignObject></g></g><g class="edgeLabel" transform="translate(1083, 678)"><g class="label" data-id="L_K_DLQ_0" transform="translate(-95, -12)"><foreignObject width="190" height="24"><div xmlns="http://www.w3.org/1999/xhtml" class="labelBkg" style="display: table-cell; white-space: nowrap; line-height: 1.5; max-width: 200px; text-align: center;"><span class="edgeLabel"><p>reprocessamento de falhas</p></span></div></foreignObject></g></g><g class="edgeLabel" transform="translate(1288.83542, 876.4362)"><g class="label" data-id="L_DLQ_D_0" transform="translate(-64, -12)"><foreignObject width="128" height="24"><div xmlns="http://www.w3.org/1999/xhtml" class="labelBkg" style="display: table-cell; white-space: nowrap; line-height: 1.5; max-width: 200px; text-align: center;"><span class="edgeLabel"><p>retry user.created</p></span></div></foreignObject></g></g></g><g class="nodes"><g class="node default" id="my-svg-flowchart-A-0" data-look="classic" transform="translate(2269.25, 60)"><rect class="basic label-container" style="" x="-92.5" y="-27" width="185" height="54"/><g class="label" style="" transform="translate(-62.5, -12)"><rect/><foreignObject width="125" height="24"><div xmlns="http://www.w3.org/1999/xhtml" style="display: table-cell; white-space: nowrap; line-height: 1.5; max-width: 200px; text-align: center;"><span class="nodeLabel"><p>Apps Web/Mobile</p></span></div></foreignObject></g></g><g class="node default" id="my-svg-flowchart-B-1" data-look="classic" transform="translate(2269.25, 250)"><rect class="basic label-container" style="" x="-109.5" y="-39" width="219" height="78"/><g class="label" style="" transform="translate(-79.5, -24)"><rect/><foreignObject width="159" height="48"><div xmlns="http://www.w3.org/1999/xhtml" style="display: table-cell; white-space: nowrap; line-height: 1.5; max-width: 200px; text-align: center;"><span class="nodeLabel"><p>API Gateway<br />JWT local verification</p></span></div></foreignObject></g></g><g class="node default" id="my-svg-flowchart-C-2" data-look="classic" transform="translate(1855.25, 440)"><rect class="basic label-container" style="" x="-75.5" y="-27" width="151" height="54"/><g class="label" style="" transform="translate(-45.5, -12)"><rect/><foreignObject width="91" height="24"><div xmlns="http://www.w3.org/1999/xhtml" style="display: table-cell; white-space: nowrap; line-height: 1.5; max-width: 200px; text-align: center;"><span class="nodeLabel"><p>Auth Service</p></span></div></foreignObject></g></g><g class="node default" id="my-svg-flowchart-D-3" data-look="classic" transform="translate(1517.5, 958.0326080322266)"><rect class="basic label-container" style="" x="-75" y="-27" width="150" height="54"/><g class="label" style="" transform="translate(-45, -12)"><rect/><foreignObject width="90" height="24"><div xmlns="http://www.w3.org/1999/xhtml" style="display: table-cell; white-space: nowrap; line-height: 1.5; max-width: 200px; text-align: center;"><span class="nodeLabel"><p>User Service</p></span></div></foreignObject></g></g><g class="node default" id="my-svg-flowchart-E-4" data-look="classic" transform="translate(2378.75, 440)"><rect class="basic label-container" style="" x="-86.5" y="-27" width="173" height="54"/><g class="label" style="" transform="translate(-56.5, -12)"><rect/><foreignObject width="113" height="24"><div xmlns="http://www.w3.org/1999/xhtml" style="display: table-cell; white-space: nowrap; line-height: 1.5; max-width: 200px; text-align: center;"><span class="nodeLabel"><p>Address Service</p></span></div></foreignObject></g></g><g class="node default" id="my-svg-flowchart-F-5" data-look="classic" transform="translate(1781.5, 1176.2458419799805)"><path d="M0,15.808823529411764 a107.5,15.808823529411764 0,0,0 215,0 a107.5,15.808823529411764 0,0,0 -215,0 l0,102.80882352941177 a107.5,15.808823529411764 0,0,0 215,0 l0,-102.80882352941177" class="basic label-container outer-path" style="" transform="translate(-107.5, -67.21323529411765)"/><g class="label" style="" transform="translate(-100, -26)"><rect/><foreignObject width="200" height="72"><div xmlns="http://www.w3.org/1999/xhtml" style="display: table; white-space: break-spaces; line-height: 1.5; max-width: 200px; text-align: center; width: 200px;"><span class="nodeLabel"><p>PostgreSQL Primary<br />Credenciais, Perfil, Enderecos</p></span></div></foreignObject></g></g><g class="node default" id="my-svg-flowchart-FR-6" data-look="classic" transform="translate(1624.25, 1371.477855682373)"><path d="M0,15.015974440894569 a94,15.015974440894569 0,0,0 188,0 a94,15.015974440894569 0,0,0 -188,0 l0,78.01597444089457 a94,15.015974440894569 0,0,0 188,0 l0,-78.01597444089457" class="basic label-container outer-path" style="" transform="translate(-94, -54.02396166134185)"/><g class="label" style="" transform="translate(-86.5, -14)"><rect/><foreignObject width="173" height="48"><div xmlns="http://www.w3.org/1999/xhtml" style="display: table-cell; white-space: nowrap; line-height: 1.5; max-width: 200px; text-align: center;"><span class="nodeLabel"><p>PostgreSQL Read Replica<br />Leituras de perfil</p></span></div></foreignObject></g></g><g class="node default" id="my-svg-flowchart-I-7" data-look="classic" transform="translate(2353.75, 1176.2458419799805)"><path d="M0,15.808823529411764 a107.5,15.808823529411764 0,0,0 215,0 a107.5,15.808823529411764 0,0,0 -215,0 l0,102.80882352941177 a107.5,15.808823529411764 0,0,0 215,0 l0,-102.80882352941177" class="basic label-container outer-path" style="" transform="translate(-107.5, -67.21323529411765)"/><g class="label" style="" transform="translate(-100, -26)"><rect/><foreignObject width="200" height="72"><div xmlns="http://www.w3.org/1999/xhtml" style="display: table; white-space: break-spaces; line-height: 1.5; max-width: 200px; text-align: center; width: 200px;"><span class="nodeLabel"><p>Redis<br />Sessao, Rate Limit, OTP, Revogacao</p></span></div></foreignObject></g></g><g class="node default" id="my-svg-flowchart-K-8" data-look="classic" transform="translate(997.25, 609.5)"><polygon points="0,0 84,0 84,-39 0,-39 0,0 -8,0 92,0 92,-39 -8,-39 -8,0" class="label-container" transform="translate(-42,19.5)"/><g class="label" style="" transform="translate(-34.5, -12)"><rect/><foreignObject width="69" height="24"><div xmlns="http://www.w3.org/1999/xhtml" style="display: table-cell; white-space: nowrap; line-height: 1.5; max-width: 200px; text-align: center;"><span class="nodeLabel"><p>Event Bus</p></span></div></foreignObject></g></g><g class="node default" id="my-svg-flowchart-DLQ-9" data-look="classic" transform="translate(1083, 792.0163040161133)"><path d="M0,13.677536231884059 a75.5,13.677536231884059 0,0,0 151,0 a75.5,13.677536231884059 0,0,0 -151,0 l0,52.67753623188406 a75.5,13.677536231884059 0,0,0 151,0 l0,-52.67753623188406" class="basic label-container outer-path" style="" transform="translate(-75.5, -40.01630434782609)"/><g class="label" style="" transform="translate(-68, -2)"><rect/><foreignObject width="136" height="24"><div xmlns="http://www.w3.org/1999/xhtml" style="display: table-cell; white-space: nowrap; line-height: 1.5; max-width: 200px; text-align: center;"><span class="nodeLabel"><p>Dead-Letter Queue</p></span></div></foreignObject></g></g><g class="node default" id="my-svg-flowchart-M-10" data-look="classic" transform="translate(145, 792.0163040161133)"><rect class="basic label-container" style="" x="-102" y="-27" width="204" height="54"/><g class="label" style="" transform="translate(-72, -12)"><rect/><foreignObject width="144" height="24"><div xmlns="http://www.w3.org/1999/xhtml" style="display: table-cell; white-space: nowrap; line-height: 1.5; max-width: 200px; text-align: center;"><span class="nodeLabel"><p>Notification Service</p></span></div></foreignObject></g></g><g class="node default" id="my-svg-flowchart-J-11" data-look="classic" transform="translate(145, 958.0326080322266)"><rect class="basic label-container" style="" x="-100" y="-27" width="200" height="54"/><g class="label" style="" transform="translate(-70, -12)"><rect/><foreignObject width="140" height="24"><div xmlns="http://www.w3.org/1999/xhtml" style="display: table-cell; white-space: nowrap; line-height: 1.5; max-width: 200px; text-align: center;"><span class="nodeLabel"><p>Email/SMS Provider</p></span></div></foreignObject></g></g><g class="node default" id="my-svg-flowchart-L-12" data-look="classic" transform="translate(381.5, 792.0163040161133)"><rect class="basic label-container" style="" x="-84.5" y="-27" width="169" height="54"/><g class="label" style="" transform="translate(-54.5, -12)"><rect/><foreignObject width="109" height="24"><div xmlns="http://www.w3.org/1999/xhtml" style="display: table-cell; white-space: nowrap; line-height: 1.5; max-width: 200px; text-align: center;"><span class="nodeLabel"><p>Analytics / CDP</p></span></div></foreignObject></g></g><g class="node default" id="my-svg-flowchart-N-13" data-look="classic" transform="translate(617, 792.0163040161133)"><rect class="basic label-container" style="" x="-101" y="-27" width="202" height="54"/><g class="label" style="" transform="translate(-71, -12)"><rect/><foreignObject width="142" height="24"><div xmlns="http://www.w3.org/1999/xhtml" style="display: table-cell; white-space: nowrap; line-height: 1.5; max-width: 200px; text-align: center;"><span class="nodeLabel"><p>Geocoding Provider</p></span></div></foreignObject></g></g></g></g></g><defs><filter id="my-svg-drop-shadow" height="130%" width="130%"><feDropShadow dx="4" dy="4" stdDeviation="0" flood-opacity="0.06" flood-color="#000000"/></filter></defs><defs><filter id="my-svg-drop-shadow-small" height="150%" width="150%"><feDropShadow dx="2" dy="2" stdDeviation="0" flood-opacity="0.06" flood-color="#000000"/></filter></defs></svg>